<?xml version="1.0" encoding="UTF-8"?>
<svg width="750px" height="743px" viewBox="0 0 750 743" version="1.1" xmlns="http://www.w3.org/2000/svg" xmlns:xlink="http://www.w3.org/1999/xlink">
    <!-- Generator: Sketch 46.2 (44496) - http://www.bohemiancoding.com/sketch -->
    <title>Character 1</title>
    <desc>Created with Sketch.</desc>
    <defs>
        <polygon id="path-1" points="0 0.727704991 547.071916 0.727704991 547.071916 712.303827 0 712.303827"></polygon>
        <polygon id="path-3" points="0 0.727704991 547.071916 0.727704991 547.071916 712.303827 0 712.303827"></polygon>
    </defs>
    <g id="Page-1" stroke="none" stroke-width="1" fill="none" fill-rule="evenodd">
        <g id="Character-1">
            <g id="Oval-1-+-Imported-Layers-+-Rectangle-2-Copy-+-google-evolved-+-by-Christopher-Stezy" transform="translate(101.000000, 15.000000)">
                <g id="Oval-1-+-Imported-Layers-+-Rectangle-2-Copy">
                    <g id="Imported-Layers">
                        <path d="M100.303631,198.331183 L100.303631,237.157517 L90.0498529,249.670962 L71.468485,262.184408 L65.0593933,286.887875 L71.787594,340.472374 L89.7307439,361.648974 L111.195626,372.556848 L116.324438,382.825574 C116.324438,382.825574 131.703182,440.903363 142.276069,453.093384 C152.848955,465.283406 178.477633,488.061727 182.964381,491.27287 C187.45113,494.484012 225.255928,515.984037 245.759639,517.585758 C266.267195,519.187479 304.071993,519.187479 304.071993,519.187479 L346.617289,505.029959 L374.879576,481.327568 L408.197626,443.148083 L427.421056,388.601011 L431.907805,371.594276 L451.131235,365.818839 C451.131235,365.818839 463.626465,353.305394 471.315837,343.360092 C479.005209,333.414791 481.246661,313.520337 481.246661,313.520337 C481.246661,313.520337 482.207833,278.22087 476.121695,267.312995 C470.035557,256.405121 459.781779,249.343687 455.937093,247.418542 C452.092407,245.493396 435.494897,239.398386 435.494897,239.398386 L428.382228,155.015409 C428.382228,155.015409 375.840748,91.162184 374.556623,89.8800371 C373.276342,88.5978902 325.217766,65.1765703 325.217766,65.1765703 L173.994729,76.407869 L134.905805,107.529771 L123.052638,138.651673" id="Fill-1" fill="#614B27"></path>
                        <path d="M531.310241,706.847965 L16.1915109,706.847965 L15.407195,699.859687 C14.7689771,694.168957 14.4460235,688.535981 14.4460235,683.122472 C14.4460235,601.065071 81.1090354,534.304876 163.046985,534.304876 L376.450131,534.304876 C459.12626,534.304876 533.151846,602.455026 533.151846,683.122472 C533.151846,688.559083 532.809669,694.20361 532.133004,699.909741 L531.310241,706.847965 Z" id="Fill-3" fill="#000000"></path>
                        <path d="M207.320083,591.997251 L210.461192,574.1165 C210.461192,574.1165 230.084469,590.357027 239.069501,591.997251 C248.054532,593.633625 257.039563,600.175269 266.428287,600.175269 C275.820855,600.175269 298.692892,596.08626 306.447624,593.225494 C314.210045,590.357027 339.708004,574.1165 339.708004,574.1165 L343.225891,698.981436 L315.028964,703.93676 L210.461192,703.93676 L206.435805,664.790852" id="Fill-5" fill="#50E3C2"></path>
                        <g id="Group-9">
                            <mask id="mask-2" fill="white">
                                <use xlink:href="#path-1"></use>
                            </mask>
                            <g id="Clip-8"></g>
                            <path d="M16.974289,695.575468 L530.082248,695.575468 C530.270638,692.695451 530.366755,689.853936 530.366755,687.081726 C530.366755,610.38008 463.749879,545.579683 384.895368,545.579683 L157.997374,545.579683 C80.0886557,545.579683 16.705161,609.05558 16.705161,687.081726 C16.705161,689.853936 16.7935888,692.695451 16.974289,695.575468 L16.974289,695.575468 Z M545.111126,712.304983 L1.85313869,712.304983 L1.0226865,704.870071 C0.342177061,698.825114 0,692.837911 0,687.081726 C0,599.834133 70.8806325,528.850169 157.997374,528.850169 L384.895368,528.850169 C472.80796,528.850169 547.071916,601.312645 547.071916,687.081726 C547.071916,692.853313 546.706671,698.859766 545.987715,704.927825 L545.111126,712.304983 Z" id="Fill-7" fill="#000000" mask="url(#mask-2)"></path>
                        </g>
                        <path d="M208.476565,509.580618 L207.319314,567.554449 C207.319314,567.554449 211.052504,584.141502 238.661195,594.094505 C266.266041,604.047507 276.946579,602.946323 289.091942,601.833589 C301.24115,600.732406 319.284262,590.259615 330.249307,580.826402 C341.214352,571.389339 343.821049,565.128766 343.821049,565.128766 L337.681085,502.653945 C337.681085,502.653945 327.381171,518.894472 291.118092,519.626027 C254.855013,520.365283 254.820411,521.470317 241.956091,519.26025 C229.087927,517.046332 208.476565,509.580618 208.476565,509.580618" id="Fill-14" fill="#614B27"></path>
                        <path d="M272.968867,608.109179 C271.688586,608.109179 270.412151,608.074526 269.135715,608.016772 C229.604653,606.080075 203.568438,574.869617 202.480392,573.541266 L212.157467,565.571164 C212.388148,565.852235 235.913782,593.886204 269.854671,595.487925 C291.85781,596.542905 313.803278,586.316532 334.960585,565.128381 L343.822587,573.999451 C321.204298,596.646862 297.386468,608.109179 272.968867,608.109179" id="Fill-16" fill="#000000"></path>
                        <path d="M272.968867,656.170051 C271.688586,656.170051 270.412151,656.143098 269.135715,656.081494 C229.604653,654.144797 203.568438,622.934339 202.480392,621.609839 L212.157467,613.635886 C212.388148,613.916958 235.913782,641.950926 269.854671,643.552647 C291.85781,644.596076 313.803278,634.377404 334.960585,613.189253 L343.822587,622.060323 C321.204298,644.707734 297.386468,656.170051 272.968867,656.170051" id="Fill-20" fill="#000000"></path>
                        <mask id="mask-4" fill="white">
                            <use xlink:href="#path-3"></use>
                        </mask>
                        <g id="Clip-23"></g>
                        <polygon id="Fill-22" fill="#000000" mask="url(#mask-4)" points="214.548862 707.059731 200.096687 707.059731 200.096687 505.031114 214.548862 505.031114"></polygon>
                        <polygon id="Fill-24" fill="#000000" mask="url(#mask-4)" points="346.617673 707.059731 332.161654 707.059731 332.161654 505.031114 346.617673 505.031114"></polygon>
                        <path d="M153.06272,230.009836 L144.231476,218.828591 C162.436064,204.416952 206.080941,185.958658 240.979156,219.255974 L231.159828,229.582454 C196.392332,196.400647 154.815897,228.623732 153.06272,230.009836" id="Fill-25" fill="#4A4A4A" mask="url(#mask-4)"></path>
                        <path d="M323.843291,230.009836 L315.015892,218.828591 C333.22048,204.416952 376.865357,185.958658 411.767417,219.255974 L401.944244,229.582454 C367.176748,196.400647 325.604157,228.623732 323.843291,230.009836" id="Fill-26" fill="#4A4A4A" mask="url(#mask-4)"></path>
                        <path d="M204.560752,268.302135 C204.560752,276.730422 197.736434,283.572389 189.308882,283.572389 C180.88902,283.572389 174.057013,276.730422 174.057013,268.302135 C174.057013,259.866148 180.88902,253.028031 189.308882,253.028031 C197.736434,253.028031 204.560752,259.866148 204.560752,268.302135" id="Fill-27" fill="#000000" mask="url(#mask-4)"></path>
                        <path d="M380.424767,268.302135 C380.424767,276.730422 373.600449,283.572389 365.176742,283.572389 C356.753035,283.572389 349.928717,276.730422 349.928717,268.302135 C349.928717,259.866148 356.753035,253.028031 365.176742,253.028031 C373.600449,253.028031 380.424767,259.866148 380.424767,268.302135" id="Fill-28" fill="#000000" mask="url(#mask-4)"></path>
                        <polygon id="Fill-29" fill="#000000" mask="url(#mask-4)" points="299.101198 317.679806 287.405663 317.679806 287.405663 253.029571 299.101198 253.029571"></polygon>
                        <polygon id="Fill-30" fill="#000000" mask="url(#mask-4)" points="304.183873 458.354037 251.826938 458.354037 251.826938 446.649152 304.183873 446.649152"></polygon>
                        <path d="M280.947359,428.736059 C232.127536,428.736059 194.930198,408.391121 194.372718,408.083098 L199.328519,399.185076 C200.116679,399.620159 278.98657,442.597106 355.384327,399.200477 L360.401642,408.063847 C333.096681,423.565118 305.545661,428.736059 280.947359,428.736059" id="Fill-31" fill="#000000" mask="url(#mask-4)"></path>
                        <path d="M191.704891,306.579418 C173.215795,306.579418 158.086956,299.498733 157.141163,299.044398 L160.639827,291.690342 C160.955091,291.836654 192.481517,306.517813 217.687279,291.848204 L221.770336,298.886536 C211.858735,304.658122 201.324295,306.579418 191.704891,306.579418" id="Fill-32" mask="url(#mask-4)"></path>
                        <path d="M362.778427,314.031656 C353.162867,314.031656 342.632272,312.10651 332.716826,306.334924 L336.799883,299.296592 C362.086383,314.016255 393.528226,299.296592 393.839646,299.142581 L397.345999,306.496636 C396.400207,306.94712 381.271367,314.031656 362.778427,314.031656" id="Fill-33" mask="url(#mask-4)"></path>
                        <path d="M235.130235,368.191774 C231.093315,365.261702 228.713454,361.453764 228.052168,356.860367 C226.648858,347.088329 233.984519,337.458751 234.299783,337.054471 L240.731943,342.032897 L237.513941,339.541759 L240.735788,342.025196 C239.190224,344.046599 235.337848,350.465034 236.102941,355.720681 C236.445118,358.069359 237.690796,359.990654 239.901491,361.596225 L235.130235,368.191774 Z" id="Fill-34" fill="#000000" mask="url(#mask-4)"></path>
                        <path d="M323.779469,368.191774 L319.012058,361.596225 C321.230442,359.990654 322.468431,358.057808 322.810608,355.697579 C323.710265,349.406204 318.235432,342.102202 318.181606,342.032897 L324.613766,337.054471 C324.925186,337.458751 332.260847,347.088329 330.861381,356.860367 C330.200095,361.453764 327.81639,365.261702 323.779469,368.191774" id="Fill-35" fill="#000000" mask="url(#mask-4)"></path>
                        <path d="M276.87007,368.492481 C261.845037,368.492481 251.068382,357.946534 250.910749,357.780972 L256.65471,352.017086 C257.419803,352.779444 275.670528,370.386824 296.389541,351.870775 L301.810548,357.946534 C292.96777,365.851182 284.382586,368.492481 276.87007,368.492481" id="Fill-36" fill="#000000" mask="url(#mask-4)"></path>
                        <polygon id="Fill-37" fill="#000000" mask="url(#mask-4)" points="444.557207 372.51565 433.330723 372.51565 433.330723 246.283861 444.557207 246.283861"></polygon>
                        <polygon id="Fill-38" fill="#000000" mask="url(#mask-4)" points="113.806553 365.642881 102.583914 365.642881 102.583914 248.771149 113.806553 248.771149"></polygon>
                        <polygon id="Fill-39" fill="#000000" mask="url(#mask-4)" points="125.675099 397.708104 114.810016 397.708104 114.810016 274.417937 125.675099 274.417937"></polygon>
                        <polygon id="Fill-40" fill="#000000" mask="url(#mask-4)" points="141.607478 447.534719 133.883503 447.534719 133.883503 371.857251 141.607478 371.857251"></polygon>
                        <polygon id="Fill-41" fill="#000000" mask="url(#mask-4)" points="153.441421 462.042616 146.194188 462.042616 146.194188 383.947164 153.441421 383.947164"></polygon>
                        <polygon id="Fill-42" fill="#000000" mask="url(#mask-4)" points="166.720967 476.073076 158.508718 476.073076 158.508718 400.449511 166.720967 400.449511"></polygon>
                        <polygon id="Fill-43" fill="#000000" mask="url(#mask-4)" points="179.027807 485.498588 170.100446 485.498588 170.100446 420.936909 179.027807 420.936909"></polygon>
                        <polygon id="Fill-44" fill="#000000" mask="url(#mask-4)" points="191.588397 496.622079 182.903251 496.622079 182.903251 438.259368 191.588397 438.259368"></polygon>
                        <polygon id="Fill-45" fill="#000000" mask="url(#mask-4)" points="203.045561 504.118595 195.859843 504.118595 195.859843 458.419492 203.045561 458.419492"></polygon>
                        <polygon id="Fill-46" fill="#000000" mask="url(#mask-4)" points="215.333178 508.469424 207.882176 508.469424 207.882176 467.440724 215.333178 467.440724"></polygon>
                        <polygon id="Fill-47" fill="#000000" mask="url(#mask-4)" points="226.836479 510.644838 220.165948 510.644838 220.165948 474.617666 226.836479 474.617666"></polygon>
                        <polygon id="Fill-48" fill="#000000" mask="url(#mask-4)" points="239.900722 513.547958 232.649644 513.547958 232.649644 483.561892 239.900722 483.561892"></polygon>
                        <polygon id="Fill-49" fill="#000000" mask="url(#mask-4)" points="252.791954 517.171082 244.464364 517.171082 244.464364 487.955074 252.791954 487.955074"></polygon>
                        <polygon id="Fill-50" fill="#000000" mask="url(#mask-4)" points="265.075726 515.476954 257.021109 515.476954 257.021109 487.958924 265.075726 487.958924"></polygon>
                        <polygon id="Fill-51" fill="#000000" mask="url(#mask-4)" points="276.575182 517.171082 269.81238 517.171082 269.81238 487.955074 276.575182 487.955074"></polygon>
                        <polygon id="Fill-52" fill="#000000" mask="url(#mask-4)" points="289.943156 515.476954 281.884694 515.476954 281.884694 487.958924 289.943156 487.958924"></polygon>
                        <polygon id="Fill-53" fill="#000000" mask="url(#mask-4)" points="302.403783 513.547958 294.164621 513.547958 294.164621 487.958924 302.403783 487.958924"></polygon>
                        <polygon id="Fill-54" fill="#000000" mask="url(#mask-4)" points="314.172368 513.547958 305.787107 513.547958 305.787107 483.561892 314.172368 483.561892"></polygon>
                        <polygon id="Fill-55" fill="#000000" mask="url(#mask-4)" points="326.140875 510.525479 318.943623 510.525479 318.943623 479.934918 326.140875 479.934918"></polygon>
                        <polygon id="Fill-56" fill="#000000" mask="url(#mask-4)" points="338.140141 504.118595 331.631087 504.118595 331.631087 467.440724 338.140141 467.440724"></polygon>
                        <polygon id="Fill-57" fill="#000000" mask="url(#mask-4)" points="351.108267 498.547224 343.914859 498.547224 343.914859 458.415642 351.108267 458.415642"></polygon>
                        <polygon id="Fill-58" fill="#000000" mask="url(#mask-4)" points="364.04948 492.625477 356.402399 492.625477 356.402399 438.259368 364.04948 438.259368"></polygon>
                        <polygon id="Fill-59" fill="#000000" mask="url(#mask-4)" points="375.3221 483.561892 368.563142 483.561892 368.563142 420.936909 375.3221 420.936909"></polygon>
                        <polygon id="Fill-60" fill="#000000" mask="url(#mask-4)" points="389.082231 471.953265 379.90881 471.953265 379.90881 400.449511 389.082231 400.449511"></polygon>
                        <polygon id="Fill-61" fill="#000000" mask="url(#mask-4)" points="401.15839 458.419492 393.430571 458.419492 393.430571 382.738173 401.15839 382.738173"></polygon>
                        <polygon id="Fill-62" fill="#000000" mask="url(#mask-4)" points="412.984644 440.038203 404.77624 440.038203 404.77624 372.823674 412.984644 372.823674"></polygon>
                        <polygon id="Fill-63" fill="#000000" mask="url(#mask-4)" points="417.5752 410.059837 427.467577 410.059837 427.467577 272.966378 417.5752 272.966378"></polygon>
                        <path d="M153.06272,222.741642 L144.231476,211.560397 C162.436064,197.148758 206.080941,178.686613 240.979156,211.98778 L231.159828,222.31426 C196.392332,189.128602 154.815897,221.355537 153.06272,222.741642" id="Fill-64" fill="#000000" mask="url(#mask-4)"></path>
                        <path d="M323.843291,222.741642 L315.015892,211.560397 C333.22048,197.148758 376.865357,178.686613 411.767417,211.98778 L401.944244,222.31426 C367.176748,189.128602 325.604157,221.355537 323.843291,222.741642" id="Fill-65" fill="#000000" mask="url(#mask-4)"></path>
                        <path d="M273.543263,42.4094148 C190.351946,42.4094148 122.673937,110.186087 122.673937,193.498682 L122.673937,362.607312 C122.673937,445.919907 190.351946,513.696579 273.543263,513.696579 C356.738425,513.696579 424.408745,445.919907 424.408745,362.607312 L424.408745,193.498682 C424.408745,110.186087 356.738425,42.4094148 273.543263,42.4094148 M273.543263,526.244677 C183.443045,526.244677 110.144105,452.83503 110.144105,362.607312 L110.144105,193.498682 C110.144105,103.270964 183.443045,29.8613166 273.543263,29.8613166 C363.643481,29.8613166 436.938577,103.270964 436.938577,193.498682 L436.938577,362.607312 C436.938577,452.83503 363.643481,526.244677 273.543263,526.244677" id="Fill-66" fill="#000000" mask="url(#mask-4)"></path>
                        <path d="M401.415556,131.121905 C420.637524,149.757966 435.494897,270.304286 435.494897,270.304286 L430.677505,282.810031 C430.677505,282.810031 458.897501,237.69463 458.897501,178.64426 C458.897501,119.59389 385.190278,-48.9437743 199.277791,24.40476 C201.056575,20.5595934 78.2082197,88.0734451 78.2082197,181.770696 C78.2082197,275.467947 121.945369,291.207516 121.945369,291.207516 L122.287546,198.280744 C122.287546,198.280744 131.733939,139.821776 164.54449,124.482217 C164.54449,124.482217 382.193588,112.485844 401.415556,131.121905 Z" id="Fill-67" fill="#000000" mask="url(#mask-4)"></path>
                        <path d="M456.458817,317.118819 L456.458817,293.886163 C456.458817,287.660243 454.955544,283.282462 451.995136,280.87603 C448.004352,277.610984 434.586398,278.350239 434.532572,278.36179 L432.829376,270.176072 C433.217689,270.091365 450.165066,268.593602 457.270046,274.380589 C462.271982,278.458048 464.809475,285.015093 464.809475,293.886163 L464.809475,316.799245 L456.458817,317.118819 Z" id="Fill-68" fill="#000000" mask="url(#mask-4)"></path>
                        <path d="M440.535665,238.751922 L440.535665,249.213163 C457.302341,249.902365 475.257025,263.728759 475.257025,280.696992 L475.257025,322.083769 C475.257025,340.422705 450.005127,364.737292 434.530265,366.042541 L434.530265,376.523033 C458.186619,375.383347 485.699192,343.653099 485.699192,322.083769 L485.699192,280.696992 C485.699192,257.961024 463.065525,239.448825 440.535665,238.751922" id="Fill-69" fill="#000000" mask="url(#mask-4)"></path>
                        <path d="M90.2563125,317.118819 L90.2563125,293.886163 C90.2563125,287.660243 91.7595848,283.282462 94.7123037,280.87603 C98.7069325,277.610984 112.124887,278.350239 112.178713,278.36179 L113.878064,270.176072 C113.48975,270.091365 96.5462189,268.593602 89.441239,274.380589 C84.4393025,278.458048 81.9018096,285.015093 81.9018096,293.886163 L81.9018096,316.799245 L90.2563125,317.118819 Z" id="Fill-70" fill="#000000" mask="url(#mask-4)"></path>
                        <path d="M106.179464,238.751922 L106.179464,249.213163 C89.405099,249.902365 71.4542597,263.728759 71.4542597,280.696992 L71.4542597,322.083769 C71.4542597,340.422705 96.7061579,364.737292 112.181019,366.042541 L112.181019,376.523033 C88.5246659,375.383347 61.0120923,343.653099 61.0120923,322.083769 L61.0120923,280.696992 C61.0120923,257.961024 83.6419146,239.448825 106.179464,238.751922" id="Fill-71" fill="#000000" mask="url(#mask-4)"></path>
                    </g>
                </g>
            </g>
        </g>
    </g>
</svg>