<?xml version="1.0" encoding="UTF-8"?>
<svg width="900px" height="900px" viewBox="0 0 900 900" version="1.1" xmlns="http://www.w3.org/2000/svg" xmlns:xlink="http://www.w3.org/1999/xlink">
    <!-- Generator: Sketch 46 (44423) - http://www.bohemiancoding.com/sketch -->
    <title>Development</title>
    <desc>Created with Sketch.</desc>
    <defs>
        <circle id="path-1" cx="450.274194" cy="450.274194" r="442.274194"></circle>
        <rect id="path-2" x="0" y="0" width="395" height="507" rx="1"></rect>
    </defs>
    <g id="Page-1" stroke="none" stroke-width="1" fill="none" fill-rule="evenodd">
        <g id="Development">
            <g id="Oval-3-Copy">
                <use fill-opacity="0.02" fill="#9013FE" fill-rule="evenodd" xlink:href="#path-1"></use>
                <circle stroke="#FFFFFF" stroke-width="50" cx="450.274194" cy="450.274194" r="417.274194"></circle>
            </g>
            <g id="iPad-Copy-3" transform="translate(450.500000, 450.500000) rotate(90.000000) translate(-450.500000, -450.500000) translate(253.000000, 197.000000)">
                <g id="Rectangle-Copy-2">
                    <use fill="#000000" fill-rule="evenodd" xlink:href="#path-2"></use>
                    <rect stroke="#EEEEEE" stroke-width="8.10000038" x="-4.05000019" y="-4.05000019" width="403.1" height="515.1" rx="1"></rect>
                </g>
            </g>
            <path d="M298.680233,324 L415,324" id="Line" stroke="#FFFFFF" stroke-width="4" stroke-linecap="square"></path>
            <path d="M322.56639,342 L390,342" id="Line-Copy" stroke="#FFFFFF" stroke-width="4" stroke-linecap="square"></path>
            <path d="M402.56639,342 L512,342" id="Line-Copy-12" stroke="#FFFFFF" stroke-width="4" stroke-linecap="square"></path>
            <path d="M322.56639,369 L594.43361,369" id="Line-Copy-2" stroke="#FFFFFF" stroke-width="4" stroke-linecap="square"></path>
            <path d="M299,416 L338,416" id="Line-Copy-4" stroke="#FFFFFF" stroke-width="4" stroke-linecap="square"></path>
            <path d="M322.56639,436 L349,436" id="Line-Copy-5" stroke="#FFFFFF" stroke-width="4" stroke-linecap="square"></path>
            <path d="M362.56639,436 L389,436" id="Line-Copy-15" stroke="#FFFFFF" stroke-width="4" stroke-linecap="square"></path>
            <path d="M481.56639,436 L520,436" id="Line-Copy-17" stroke="#FFFFFF" stroke-width="4" stroke-linecap="square"></path>
            <path d="M404.56639,436 L466,436" id="Line-Copy-16" stroke="#FFFFFF" stroke-width="4" stroke-linecap="square"></path>
            <path d="M344.56639,458 L433,458" id="Line-Copy-6" stroke="#FFFFFF" stroke-width="4" stroke-linecap="square"></path>
            <path d="M446.56639,458 L475,458" id="Line-Copy-13" stroke="#FFFFFF" stroke-width="4" stroke-linecap="square"></path>
            <path d="M486.56639,458 L515,458" id="Line-Copy-14" stroke="#FFFFFF" stroke-width="4" stroke-linecap="square"></path>
            <path d="M367,483 L529,483" id="Line-Copy-7" stroke="#FFFFFF" stroke-width="4" stroke-linecap="square"></path>
            <path d="M325.569447,503 L503,503" id="Line-Copy-8" stroke="#FFFFFF" stroke-width="4" stroke-linecap="square"></path>
            <path d="M342.567,521 L549,521" id="Line-Copy-9" stroke="#FFFFFF" stroke-width="4" stroke-linecap="square"></path>
            <path d="M438,541 L520,541" id="Line-Copy-10" stroke="#FFFFFF" stroke-width="4" stroke-linecap="square"></path>
            <path d="M390,541 L420,541" id="Line-Copy-18" stroke="#FFFFFF" stroke-width="4" stroke-linecap="square"></path>
            <path d="M343,541 L373,541" id="Line-Copy-19" stroke="#FFFFFF" stroke-width="4" stroke-linecap="square"></path>
            <path d="M325.568761,562 L363,562" id="Line-Copy-11" stroke="#FFFFFF" stroke-width="4" stroke-linecap="square"></path>
            <path d="M298.68,393 L468,393" id="Line-Copy-3" stroke="#FFFFFF" stroke-width="4" stroke-linecap="square"></path>
        </g>
    </g>
</svg>