<?xml version="1.0" encoding="UTF-8"?>
<svg width="900px" height="900px" viewBox="0 0 900 900" version="1.1" xmlns="http://www.w3.org/2000/svg" xmlns:xlink="http://www.w3.org/1999/xlink">
    <!-- Generator: Sketch 46.2 (44496) - http://www.bohemiancoding.com/sketch -->
    <title>Ekletik Copy 4</title>
    <desc>Created with Sketch.</desc>
    <defs></defs>
    <g id="Page-1" stroke="none" stroke-width="1" fill="none" fill-rule="evenodd">
        <g id="Ekletik-Copy-4" fill="#F8F9FA">
            <path d="M452.579143,862.563036 C379.487634,868.957715 318.111235,859.59726 266.825692,834.623775 C198.018655,796.453029 160.417797,740.821901 154.023119,667.730392 C149.3948,596.121035 185.657083,524.207591 264.150015,448.599443 C127.185349,398.388146 53.911977,327.874388 44.4720032,238.682426 C39.5594765,163.824558 72.9995599,97.0680884 144.508045,35.1645066 C155.877835,34.1697789 172.546705,37.6215065 193.032502,47.2860491 C215.142554,56.8084878 228.84712,63.7929349 232.521943,68.3814942 C181.560367,121.940701 158.211138,173.084141 162.474257,221.811814 C170.208983,291.512707 257.390137,352.62625 422.251359,403.670292 C319.556574,520.676344 269.670717,605.238515 272.593788,657.356803 C276.918019,688.075558 297.2006,714.124762 331.67517,734.022263 C362.048606,744.458438 353.879067,761.676337 575.400748,744.116692 C775.725419,728.237297 869.169549,729.458789 855.733138,747.781168 C768.961934,784.37488 696.860777,811.185212 639.429666,828.212163 C591.554617,842.220817 530.401314,854.11779 452.579143,862.563036 Z" id="Combined-Shape"></path>
        </g>
    </g>
</svg>