<?xml version="1.0" encoding="UTF-8"?>
<svg width="1440px" height="1024px" viewBox="0 0 1440 1024" version="1.1" xmlns="http://www.w3.org/2000/svg" xmlns:xlink="http://www.w3.org/1999/xlink" style="background: #0069FA;">
    <!-- Generator: Sketch 48.2 (47327) - http://www.bohemiancoding.com/sketch -->
    <title>Desktop</title>
    <desc>Created with Sketch.</desc>
    <defs>
        <rect id="path-1" x="0" y="0" width="611" height="401" rx="4"></rect>
        <path d="M4,0 L607,0 C609.209139,-4.05812251e-16 611,1.790861 611,4 L611,25 L0,25 L0,4 C-2.705415e-16,1.790861 1.790861,4.05812251e-16 4,0 Z" id="path-2"></path>
        <filter x="-0.2%" y="-6.0%" width="100.5%" height="112.0%" filterUnits="objectBoundingBox" id="filter-3">
            <feOffset dx="0" dy="0" in="SourceAlpha" result="shadowOffsetOuter1"></feOffset>
            <feGaussianBlur stdDeviation="0.5" in="shadowOffsetOuter1" result="shadowBlurOuter1"></feGaussianBlur>
            <feColorMatrix values="0 0 0 0 0   0 0 0 0 0   0 0 0 0 0  0 0 0 0.5 0" type="matrix" in="shadowBlurOuter1"></feColorMatrix>
        </filter>
        <path d="M4,0 L16.3118603,-6.21724894e-15 C17.3814971,-6.41373804e-15 18.4316882,0.285942533 19.3536767,0.828215702 L27.8923268,5.85027476 C28.8143153,6.39254793 29.8645064,6.67849046 30.9341432,6.67849046 L78,6.67849046 C80.209139,6.67849046 82,8.46935146 82,10.6784905 L82,63 C82,65.209139 80.209139,67 78,67 L4,67 C1.790861,67 2.705415e-16,65.209139 0,63 L0,4 C-2.705415e-16,1.790861 1.790861,4.05812251e-16 4,0 Z" id="path-4"></path>
        <filter x="-0.6%" y="-2.2%" width="101.2%" height="103.0%" filterUnits="objectBoundingBox" id="filter-5">
            <feMorphology radius="0.5" operator="erode" in="SourceAlpha" result="shadowSpreadOuter1"></feMorphology>
            <feOffset dx="0" dy="-1" in="shadowSpreadOuter1" result="shadowOffsetOuter1"></feOffset>
            <feGaussianBlur stdDeviation="0.5" in="shadowOffsetOuter1" result="shadowBlurOuter1"></feGaussianBlur>
            <feColorMatrix values="0 0 0 0 0   0 0 0 0 0   0 0 0 0 0  0 0 0 0.5 0" type="matrix" in="shadowBlurOuter1"></feColorMatrix>
        </filter>
        <rect id="path-6" x="0" y="15" width="82" height="52" rx="4"></rect>
        <filter x="-0.6%" y="-2.9%" width="101.2%" height="103.8%" filterUnits="objectBoundingBox" id="filter-7">
            <feMorphology radius="0.5" operator="erode" in="SourceAlpha" result="shadowSpreadOuter1"></feMorphology>
            <feOffset dx="0" dy="-1" in="shadowSpreadOuter1" result="shadowOffsetOuter1"></feOffset>
            <feGaussianBlur stdDeviation="0.5" in="shadowOffsetOuter1" result="shadowBlurOuter1"></feGaussianBlur>
            <feColorMatrix values="0 0 0 0 0   0 0 0 0 0   0 0 0 0 0  0 0 0 0.5 0" type="matrix" in="shadowBlurOuter1"></feColorMatrix>
        </filter>
        <path d="M4,0 L16.3118603,-6.21724894e-15 C17.3814971,-6.41373804e-15 18.4316882,0.285942533 19.3536767,0.828215702 L27.8923268,5.85027476 C28.8143153,6.39254793 29.8645064,6.67849046 30.9341432,6.67849046 L78,6.67849046 C80.209139,6.67849046 82,8.46935146 82,10.6784905 L82,63 C82,65.209139 80.209139,67 78,67 L4,67 C1.790861,67 2.705415e-16,65.209139 0,63 L0,4 C-2.705415e-16,1.790861 1.790861,4.05812251e-16 4,0 Z" id="path-8"></path>
        <filter x="-0.6%" y="-2.2%" width="101.2%" height="103.0%" filterUnits="objectBoundingBox" id="filter-9">
            <feMorphology radius="0.5" operator="erode" in="SourceAlpha" result="shadowSpreadOuter1"></feMorphology>
            <feOffset dx="0" dy="-1" in="shadowSpreadOuter1" result="shadowOffsetOuter1"></feOffset>
            <feGaussianBlur stdDeviation="0.5" in="shadowOffsetOuter1" result="shadowBlurOuter1"></feGaussianBlur>
            <feColorMatrix values="0 0 0 0 0   0 0 0 0 0   0 0 0 0 0  0 0 0 0.5 0" type="matrix" in="shadowBlurOuter1"></feColorMatrix>
        </filter>
        <rect id="path-10" x="0" y="15" width="82" height="52" rx="4"></rect>
        <filter x="-0.6%" y="-2.9%" width="101.2%" height="103.8%" filterUnits="objectBoundingBox" id="filter-11">
            <feMorphology radius="0.5" operator="erode" in="SourceAlpha" result="shadowSpreadOuter1"></feMorphology>
            <feOffset dx="0" dy="-1" in="shadowSpreadOuter1" result="shadowOffsetOuter1"></feOffset>
            <feGaussianBlur stdDeviation="0.5" in="shadowOffsetOuter1" result="shadowBlurOuter1"></feGaussianBlur>
            <feColorMatrix values="0 0 0 0 0   0 0 0 0 0   0 0 0 0 0  0 0 0 0.5 0" type="matrix" in="shadowBlurOuter1"></feColorMatrix>
        </filter>
        <path d="M4,0 L16.3118603,-6.21724894e-15 C17.3814971,-6.41373804e-15 18.4316882,0.285942533 19.3536767,0.828215702 L27.8923268,5.85027476 C28.8143153,6.39254793 29.8645064,6.67849046 30.9341432,6.67849046 L78,6.67849046 C80.209139,6.67849046 82,8.46935146 82,10.6784905 L82,63 C82,65.209139 80.209139,67 78,67 L4,67 C1.790861,67 2.705415e-16,65.209139 0,63 L0,4 C-2.705415e-16,1.790861 1.790861,4.05812251e-16 4,0 Z" id="path-12"></path>
        <filter x="-0.6%" y="-2.2%" width="101.2%" height="103.0%" filterUnits="objectBoundingBox" id="filter-13">
            <feMorphology radius="0.5" operator="erode" in="SourceAlpha" result="shadowSpreadOuter1"></feMorphology>
            <feOffset dx="0" dy="-1" in="shadowSpreadOuter1" result="shadowOffsetOuter1"></feOffset>
            <feGaussianBlur stdDeviation="0.5" in="shadowOffsetOuter1" result="shadowBlurOuter1"></feGaussianBlur>
            <feColorMatrix values="0 0 0 0 0   0 0 0 0 0   0 0 0 0 0  0 0 0 0.5 0" type="matrix" in="shadowBlurOuter1"></feColorMatrix>
        </filter>
        <rect id="path-14" x="0" y="15" width="82" height="52" rx="4"></rect>
        <filter x="-0.6%" y="-2.9%" width="101.2%" height="103.8%" filterUnits="objectBoundingBox" id="filter-15">
            <feMorphology radius="0.5" operator="erode" in="SourceAlpha" result="shadowSpreadOuter1"></feMorphology>
            <feOffset dx="0" dy="-1" in="shadowSpreadOuter1" result="shadowOffsetOuter1"></feOffset>
            <feGaussianBlur stdDeviation="0.5" in="shadowOffsetOuter1" result="shadowBlurOuter1"></feGaussianBlur>
            <feColorMatrix values="0 0 0 0 0   0 0 0 0 0   0 0 0 0 0  0 0 0 0.5 0" type="matrix" in="shadowBlurOuter1"></feColorMatrix>
        </filter>
        <path d="M4,0 L16.3118603,-6.21724894e-15 C17.3814971,-6.41373804e-15 18.4316882,0.285942533 19.3536767,0.828215702 L27.8923268,5.85027476 C28.8143153,6.39254793 29.8645064,6.67849046 30.9341432,6.67849046 L78,6.67849046 C80.209139,6.67849046 82,8.46935146 82,10.6784905 L82,63 C82,65.209139 80.209139,67 78,67 L4,67 C1.790861,67 2.705415e-16,65.209139 0,63 L0,4 C-2.705415e-16,1.790861 1.790861,4.05812251e-16 4,0 Z" id="path-16"></path>
        <filter x="-0.6%" y="-2.2%" width="101.2%" height="103.0%" filterUnits="objectBoundingBox" id="filter-17">
            <feMorphology radius="0.5" operator="erode" in="SourceAlpha" result="shadowSpreadOuter1"></feMorphology>
            <feOffset dx="0" dy="-1" in="shadowSpreadOuter1" result="shadowOffsetOuter1"></feOffset>
            <feGaussianBlur stdDeviation="0.5" in="shadowOffsetOuter1" result="shadowBlurOuter1"></feGaussianBlur>
            <feColorMatrix values="0 0 0 0 0   0 0 0 0 0   0 0 0 0 0  0 0 0 0.5 0" type="matrix" in="shadowBlurOuter1"></feColorMatrix>
        </filter>
        <rect id="path-18" x="0" y="15" width="82" height="52" rx="4"></rect>
        <filter x="-0.6%" y="-2.9%" width="101.2%" height="103.8%" filterUnits="objectBoundingBox" id="filter-19">
            <feMorphology radius="0.5" operator="erode" in="SourceAlpha" result="shadowSpreadOuter1"></feMorphology>
            <feOffset dx="0" dy="-1" in="shadowSpreadOuter1" result="shadowOffsetOuter1"></feOffset>
            <feGaussianBlur stdDeviation="0.5" in="shadowOffsetOuter1" result="shadowBlurOuter1"></feGaussianBlur>
            <feColorMatrix values="0 0 0 0 0   0 0 0 0 0   0 0 0 0 0  0 0 0 0.5 0" type="matrix" in="shadowBlurOuter1"></feColorMatrix>
        </filter>
        <path d="M4,0 L16.3118603,-6.21724894e-15 C17.3814971,-6.41373804e-15 18.4316882,0.285942533 19.3536767,0.828215702 L27.8923268,5.85027476 C28.8143153,6.39254793 29.8645064,6.67849046 30.9341432,6.67849046 L78,6.67849046 C80.209139,6.67849046 82,8.46935146 82,10.6784905 L82,63 C82,65.209139 80.209139,67 78,67 L4,67 C1.790861,67 2.705415e-16,65.209139 0,63 L0,4 C-2.705415e-16,1.790861 1.790861,4.05812251e-16 4,0 Z" id="path-20"></path>
        <filter x="-0.6%" y="-2.2%" width="101.2%" height="103.0%" filterUnits="objectBoundingBox" id="filter-21">
            <feMorphology radius="0.5" operator="erode" in="SourceAlpha" result="shadowSpreadOuter1"></feMorphology>
            <feOffset dx="0" dy="-1" in="shadowSpreadOuter1" result="shadowOffsetOuter1"></feOffset>
            <feGaussianBlur stdDeviation="0.5" in="shadowOffsetOuter1" result="shadowBlurOuter1"></feGaussianBlur>
            <feColorMatrix values="0 0 0 0 0   0 0 0 0 0   0 0 0 0 0  0 0 0 0.5 0" type="matrix" in="shadowBlurOuter1"></feColorMatrix>
        </filter>
        <rect id="path-22" x="0" y="15" width="82" height="52" rx="4"></rect>
        <filter x="-0.6%" y="-2.9%" width="101.2%" height="103.8%" filterUnits="objectBoundingBox" id="filter-23">
            <feMorphology radius="0.5" operator="erode" in="SourceAlpha" result="shadowSpreadOuter1"></feMorphology>
            <feOffset dx="0" dy="-1" in="shadowSpreadOuter1" result="shadowOffsetOuter1"></feOffset>
            <feGaussianBlur stdDeviation="0.5" in="shadowOffsetOuter1" result="shadowBlurOuter1"></feGaussianBlur>
            <feColorMatrix values="0 0 0 0 0   0 0 0 0 0   0 0 0 0 0  0 0 0 0.5 0" type="matrix" in="shadowBlurOuter1"></feColorMatrix>
        </filter>
        <path d="M4,0 L16.3118603,-6.21724894e-15 C17.3814971,-6.41373804e-15 18.4316882,0.285942533 19.3536767,0.828215702 L27.8923268,5.85027476 C28.8143153,6.39254793 29.8645064,6.67849046 30.9341432,6.67849046 L78,6.67849046 C80.209139,6.67849046 82,8.46935146 82,10.6784905 L82,63 C82,65.209139 80.209139,67 78,67 L4,67 C1.790861,67 2.705415e-16,65.209139 0,63 L0,4 C-2.705415e-16,1.790861 1.790861,4.05812251e-16 4,0 Z" id="path-24"></path>
        <filter x="-0.6%" y="-2.2%" width="101.2%" height="103.0%" filterUnits="objectBoundingBox" id="filter-25">
            <feMorphology radius="0.5" operator="erode" in="SourceAlpha" result="shadowSpreadOuter1"></feMorphology>
            <feOffset dx="0" dy="-1" in="shadowSpreadOuter1" result="shadowOffsetOuter1"></feOffset>
            <feGaussianBlur stdDeviation="0.5" in="shadowOffsetOuter1" result="shadowBlurOuter1"></feGaussianBlur>
            <feColorMatrix values="0 0 0 0 0   0 0 0 0 0   0 0 0 0 0  0 0 0 0.5 0" type="matrix" in="shadowBlurOuter1"></feColorMatrix>
        </filter>
        <rect id="path-26" x="0" y="15" width="82" height="52" rx="4"></rect>
        <filter x="-0.6%" y="-2.9%" width="101.2%" height="103.8%" filterUnits="objectBoundingBox" id="filter-27">
            <feMorphology radius="0.5" operator="erode" in="SourceAlpha" result="shadowSpreadOuter1"></feMorphology>
            <feOffset dx="0" dy="-1" in="shadowSpreadOuter1" result="shadowOffsetOuter1"></feOffset>
            <feGaussianBlur stdDeviation="0.5" in="shadowOffsetOuter1" result="shadowBlurOuter1"></feGaussianBlur>
            <feColorMatrix values="0 0 0 0 0   0 0 0 0 0   0 0 0 0 0  0 0 0 0.5 0" type="matrix" in="shadowBlurOuter1"></feColorMatrix>
        </filter>
        <path d="M4,0 L16.3118603,-6.21724894e-15 C17.3814971,-6.41373804e-15 18.4316882,0.285942533 19.3536767,0.828215702 L27.8923268,5.85027476 C28.8143153,6.39254793 29.8645064,6.67849046 30.9341432,6.67849046 L78,6.67849046 C80.209139,6.67849046 82,8.46935146 82,10.6784905 L82,63 C82,65.209139 80.209139,67 78,67 L4,67 C1.790861,67 2.705415e-16,65.209139 0,63 L0,4 C-2.705415e-16,1.790861 1.790861,4.05812251e-16 4,0 Z" id="path-28"></path>
        <filter x="-0.6%" y="-2.2%" width="101.2%" height="103.0%" filterUnits="objectBoundingBox" id="filter-29">
            <feMorphology radius="0.5" operator="erode" in="SourceAlpha" result="shadowSpreadOuter1"></feMorphology>
            <feOffset dx="0" dy="-1" in="shadowSpreadOuter1" result="shadowOffsetOuter1"></feOffset>
            <feGaussianBlur stdDeviation="0.5" in="shadowOffsetOuter1" result="shadowBlurOuter1"></feGaussianBlur>
            <feColorMatrix values="0 0 0 0 0   0 0 0 0 0   0 0 0 0 0  0 0 0 0.5 0" type="matrix" in="shadowBlurOuter1"></feColorMatrix>
        </filter>
        <rect id="path-30" x="0" y="15" width="82" height="52" rx="4"></rect>
        <filter x="-0.6%" y="-2.9%" width="101.2%" height="103.8%" filterUnits="objectBoundingBox" id="filter-31">
            <feMorphology radius="0.5" operator="erode" in="SourceAlpha" result="shadowSpreadOuter1"></feMorphology>
            <feOffset dx="0" dy="-1" in="shadowSpreadOuter1" result="shadowOffsetOuter1"></feOffset>
            <feGaussianBlur stdDeviation="0.5" in="shadowOffsetOuter1" result="shadowBlurOuter1"></feGaussianBlur>
            <feColorMatrix values="0 0 0 0 0   0 0 0 0 0   0 0 0 0 0  0 0 0 0.5 0" type="matrix" in="shadowBlurOuter1"></feColorMatrix>
        </filter>
        <path d="M4,0 L16.3118603,-6.21724894e-15 C17.3814971,-6.41373804e-15 18.4316882,0.285942533 19.3536767,0.828215702 L27.8923268,5.85027476 C28.8143153,6.39254793 29.8645064,6.67849046 30.9341432,6.67849046 L78,6.67849046 C80.209139,6.67849046 82,8.46935146 82,10.6784905 L82,63 C82,65.209139 80.209139,67 78,67 L4,67 C1.790861,67 2.705415e-16,65.209139 0,63 L0,4 C-2.705415e-16,1.790861 1.790861,4.05812251e-16 4,0 Z" id="path-32"></path>
        <filter x="-0.6%" y="-2.2%" width="101.2%" height="103.0%" filterUnits="objectBoundingBox" id="filter-33">
            <feMorphology radius="0.5" operator="erode" in="SourceAlpha" result="shadowSpreadOuter1"></feMorphology>
            <feOffset dx="0" dy="-1" in="shadowSpreadOuter1" result="shadowOffsetOuter1"></feOffset>
            <feGaussianBlur stdDeviation="0.5" in="shadowOffsetOuter1" result="shadowBlurOuter1"></feGaussianBlur>
            <feColorMatrix values="0 0 0 0 0   0 0 0 0 0   0 0 0 0 0  0 0 0 0.5 0" type="matrix" in="shadowBlurOuter1"></feColorMatrix>
        </filter>
        <rect id="path-34" x="0" y="15" width="82" height="52" rx="4"></rect>
        <filter x="-0.6%" y="-2.9%" width="101.2%" height="103.8%" filterUnits="objectBoundingBox" id="filter-35">
            <feMorphology radius="0.5" operator="erode" in="SourceAlpha" result="shadowSpreadOuter1"></feMorphology>
            <feOffset dx="0" dy="-1" in="shadowSpreadOuter1" result="shadowOffsetOuter1"></feOffset>
            <feGaussianBlur stdDeviation="0.5" in="shadowOffsetOuter1" result="shadowBlurOuter1"></feGaussianBlur>
            <feColorMatrix values="0 0 0 0 0   0 0 0 0 0   0 0 0 0 0  0 0 0 0.5 0" type="matrix" in="shadowBlurOuter1"></feColorMatrix>
        </filter>
        <path d="M4,0 L16.3118603,-6.21724894e-15 C17.3814971,-6.41373804e-15 18.4316882,0.285942533 19.3536767,0.828215702 L27.8923268,5.85027476 C28.8143153,6.39254793 29.8645064,6.67849046 30.9341432,6.67849046 L78,6.67849046 C80.209139,6.67849046 82,8.46935146 82,10.6784905 L82,63 C82,65.209139 80.209139,67 78,67 L4,67 C1.790861,67 2.705415e-16,65.209139 0,63 L0,4 C-2.705415e-16,1.790861 1.790861,4.05812251e-16 4,0 Z" id="path-36"></path>
        <filter x="-0.6%" y="-2.2%" width="101.2%" height="103.0%" filterUnits="objectBoundingBox" id="filter-37">
            <feMorphology radius="0.5" operator="erode" in="SourceAlpha" result="shadowSpreadOuter1"></feMorphology>
            <feOffset dx="0" dy="-1" in="shadowSpreadOuter1" result="shadowOffsetOuter1"></feOffset>
            <feGaussianBlur stdDeviation="0.5" in="shadowOffsetOuter1" result="shadowBlurOuter1"></feGaussianBlur>
            <feColorMatrix values="0 0 0 0 0   0 0 0 0 0   0 0 0 0 0  0 0 0 0.5 0" type="matrix" in="shadowBlurOuter1"></feColorMatrix>
        </filter>
        <rect id="path-38" x="0" y="15" width="82" height="52" rx="4"></rect>
        <filter x="-0.6%" y="-2.9%" width="101.2%" height="103.8%" filterUnits="objectBoundingBox" id="filter-39">
            <feMorphology radius="0.5" operator="erode" in="SourceAlpha" result="shadowSpreadOuter1"></feMorphology>
            <feOffset dx="0" dy="-1" in="shadowSpreadOuter1" result="shadowOffsetOuter1"></feOffset>
            <feGaussianBlur stdDeviation="0.5" in="shadowOffsetOuter1" result="shadowBlurOuter1"></feGaussianBlur>
            <feColorMatrix values="0 0 0 0 0   0 0 0 0 0   0 0 0 0 0  0 0 0 0.5 0" type="matrix" in="shadowBlurOuter1"></feColorMatrix>
        </filter>
        <path d="M4,0 L16.3118603,-6.21724894e-15 C17.3814971,-6.41373804e-15 18.4316882,0.285942533 19.3536767,0.828215702 L27.8923268,5.85027476 C28.8143153,6.39254793 29.8645064,6.67849046 30.9341432,6.67849046 L78,6.67849046 C80.209139,6.67849046 82,8.46935146 82,10.6784905 L82,63 C82,65.209139 80.209139,67 78,67 L4,67 C1.790861,67 2.705415e-16,65.209139 0,63 L0,4 C-2.705415e-16,1.790861 1.790861,4.05812251e-16 4,0 Z" id="path-40"></path>
        <filter x="-0.6%" y="-2.2%" width="101.2%" height="103.0%" filterUnits="objectBoundingBox" id="filter-41">
            <feMorphology radius="0.5" operator="erode" in="SourceAlpha" result="shadowSpreadOuter1"></feMorphology>
            <feOffset dx="0" dy="-1" in="shadowSpreadOuter1" result="shadowOffsetOuter1"></feOffset>
            <feGaussianBlur stdDeviation="0.5" in="shadowOffsetOuter1" result="shadowBlurOuter1"></feGaussianBlur>
            <feColorMatrix values="0 0 0 0 0   0 0 0 0 0   0 0 0 0 0  0 0 0 0.5 0" type="matrix" in="shadowBlurOuter1"></feColorMatrix>
        </filter>
        <rect id="path-42" x="0" y="15" width="82" height="52" rx="4"></rect>
        <filter x="-0.6%" y="-2.9%" width="101.2%" height="103.8%" filterUnits="objectBoundingBox" id="filter-43">
            <feMorphology radius="0.5" operator="erode" in="SourceAlpha" result="shadowSpreadOuter1"></feMorphology>
            <feOffset dx="0" dy="-1" in="shadowSpreadOuter1" result="shadowOffsetOuter1"></feOffset>
            <feGaussianBlur stdDeviation="0.5" in="shadowOffsetOuter1" result="shadowBlurOuter1"></feGaussianBlur>
            <feColorMatrix values="0 0 0 0 0   0 0 0 0 0   0 0 0 0 0  0 0 0 0.5 0" type="matrix" in="shadowBlurOuter1"></feColorMatrix>
        </filter>
        <path d="M4,0 L16.3118603,-6.21724894e-15 C17.3814971,-6.41373804e-15 18.4316882,0.285942533 19.3536767,0.828215702 L27.8923268,5.85027476 C28.8143153,6.39254793 29.8645064,6.67849046 30.9341432,6.67849046 L78,6.67849046 C80.209139,6.67849046 82,8.46935146 82,10.6784905 L82,63 C82,65.209139 80.209139,67 78,67 L4,67 C1.790861,67 2.705415e-16,65.209139 0,63 L0,4 C-2.705415e-16,1.790861 1.790861,4.05812251e-16 4,0 Z" id="path-44"></path>
        <filter x="-0.6%" y="-2.2%" width="101.2%" height="103.0%" filterUnits="objectBoundingBox" id="filter-45">
            <feMorphology radius="0.5" operator="erode" in="SourceAlpha" result="shadowSpreadOuter1"></feMorphology>
            <feOffset dx="0" dy="-1" in="shadowSpreadOuter1" result="shadowOffsetOuter1"></feOffset>
            <feGaussianBlur stdDeviation="0.5" in="shadowOffsetOuter1" result="shadowBlurOuter1"></feGaussianBlur>
            <feColorMatrix values="0 0 0 0 0   0 0 0 0 0   0 0 0 0 0  0 0 0 0.5 0" type="matrix" in="shadowBlurOuter1"></feColorMatrix>
        </filter>
        <rect id="path-46" x="0" y="15" width="82" height="52" rx="4"></rect>
        <filter x="-0.6%" y="-2.9%" width="101.2%" height="103.8%" filterUnits="objectBoundingBox" id="filter-47">
            <feMorphology radius="0.5" operator="erode" in="SourceAlpha" result="shadowSpreadOuter1"></feMorphology>
            <feOffset dx="0" dy="-1" in="shadowSpreadOuter1" result="shadowOffsetOuter1"></feOffset>
            <feGaussianBlur stdDeviation="0.5" in="shadowOffsetOuter1" result="shadowBlurOuter1"></feGaussianBlur>
            <feColorMatrix values="0 0 0 0 0   0 0 0 0 0   0 0 0 0 0  0 0 0 0.5 0" type="matrix" in="shadowBlurOuter1"></feColorMatrix>
        </filter>
    </defs>
    <g id="Page-1" stroke="none" stroke-width="1" fill="none" fill-rule="evenodd">
        <g id="Desktop">
            <g id="Finder" transform="translate(124.000000, 623.000000)">
                <g id="Window">
                    <g id="Window-Background">
                        <use fill="#F2F2F2" fill-rule="evenodd" xlink:href="#path-1"></use>
                        <rect stroke="#E3E1E3" stroke-width="1" x="0.5" y="0.5" width="610" height="400" rx="4"></rect>
                    </g>
                    <rect id="Sidebar" fill="#ECECEC" x="0" y="25" width="130" height="376"></rect>
                    <text id="Folders-2" font-family="Menlo-Regular, Menlo" font-size="15" font-weight="normal" letter-spacing="0.46875" fill="#9B9B9B">
                        <tspan x="15" y="215">Clients</tspan>
                        <tspan x="15" y="233">CloudFile</tspan>
                        <tspan x="15" y="251">s</tspan>
                        <tspan x="15" y="269">Sketches</tspan>
                        <tspan x="15" y="287">Depoyed</tspan>
                        <tspan x="15" y="305">Storage</tspan>
                    </text>
                    <text id="Folders" font-family="Menlo-Bold, Menlo" font-size="15" font-weight="bold" letter-spacing="0.46875" fill="#9B9B9B">
                        <tspan x="15" y="59">All Files</tspan>
                        <tspan x="15" y="77">Desktop</tspan>
                        <tspan x="15" y="95">Documents</tspan>
                        <tspan x="15" y="113">Music</tspan>
                        <tspan x="15" y="131">Movies</tspan>
                        <tspan x="15" y="149">Pictures</tspan>
                        <tspan x="15" y="167">Developer</tspan>
                        <tspan x="15" y="185">Downloads</tspan>
                    </text>
                    <g id="Toolbar">
                        <use fill="black" fill-opacity="1" filter="url(#filter-3)" xlink:href="#path-2"></use>
                        <use fill="#E4E2E4" fill-rule="evenodd" xlink:href="#path-2"></use>
                    </g>
                </g>
                <g id="Folders" transform="translate(157.000000, 45.000000)">
                    <g id="Folder">
                        <g id="Folder-Background">
                            <use fill="black" fill-opacity="1" filter="url(#filter-5)" xlink:href="#path-4"></use>
                            <use fill="#92DCFF" fill-rule="evenodd" xlink:href="#path-4"></use>
                        </g>
                        <g id="Folder-Front">
                            <use fill="black" fill-opacity="1" filter="url(#filter-7)" xlink:href="#path-6"></use>
                            <use fill="#67CAF8" fill-rule="evenodd" xlink:href="#path-6"></use>
                        </g>
                        <text id="Audiotions" font-family="Menlo-Regular, Menlo" font-size="12" font-weight="normal" letter-spacing="0.375" fill="#9B9B9B">
                            <tspan x="3.00195312" y="82">Audiotions</tspan>
                        </text>
                    </g>
                    <g id="Folder-Copy-4" transform="translate(0.000000, 114.000000)">
                        <g id="Folder-Background">
                            <use fill="black" fill-opacity="1" filter="url(#filter-9)" xlink:href="#path-8"></use>
                            <use fill="#92DCFF" fill-rule="evenodd" xlink:href="#path-8"></use>
                        </g>
                        <g id="Folder-Front">
                            <use fill="black" fill-opacity="1" filter="url(#filter-11)" xlink:href="#path-10"></use>
                            <use fill="#67CAF8" fill-rule="evenodd" xlink:href="#path-10"></use>
                        </g>
                        <text id="Final-Cuts" font-family="Menlo-Regular, Menlo" font-size="12" font-weight="normal" letter-spacing="0.375" fill="#9B9B9B">
                            <tspan x="3.00195312" y="82">Final Cuts</tspan>
                        </text>
                    </g>
                    <g id="Folder-Copy-8" transform="translate(0.000000, 228.000000)">
                        <g id="Folder-Background">
                            <use fill="black" fill-opacity="1" filter="url(#filter-13)" xlink:href="#path-12"></use>
                            <use fill="#92DCFF" fill-rule="evenodd" xlink:href="#path-12"></use>
                        </g>
                        <g id="Folder-Front">
                            <use fill="black" fill-opacity="1" filter="url(#filter-15)" xlink:href="#path-14"></use>
                            <use fill="#67CAF8" fill-rule="evenodd" xlink:href="#path-14"></use>
                        </g>
                        <text id="Spreadsheets" font-family="Menlo-Regular, Menlo" font-size="12" font-weight="normal" letter-spacing="0.375" fill="#9B9B9B">
                            <tspan x="3.00195312" y="82">Spreadshee</tspan>
                            <tspan x="33.4003906" y="96">ts</tspan>
                        </text>
                    </g>
                    <g id="Folder-Copy" transform="translate(115.000000, 0.000000)">
                        <g id="Folder-Background">
                            <use fill="black" fill-opacity="1" filter="url(#filter-17)" xlink:href="#path-16"></use>
                            <use fill="#92DCFF" fill-rule="evenodd" xlink:href="#path-16"></use>
                        </g>
                        <g id="Folder-Front">
                            <use fill="black" fill-opacity="1" filter="url(#filter-19)" xlink:href="#path-18"></use>
                            <use fill="#67CAF8" fill-rule="evenodd" xlink:href="#path-18"></use>
                        </g>
                        <text id="Databases" font-family="Menlo-Regular, Menlo" font-size="12" font-weight="normal" letter-spacing="0.375" fill="#9B9B9B">
                            <tspan x="6.80175781" y="82">Databases</tspan>
                        </text>
                    </g>
                    <g id="Folder-Copy-5" transform="translate(115.000000, 114.000000)">
                        <g id="Folder-Background">
                            <use fill="black" fill-opacity="1" filter="url(#filter-21)" xlink:href="#path-20"></use>
                            <use fill="#92DCFF" fill-rule="evenodd" xlink:href="#path-20"></use>
                        </g>
                        <g id="Folder-Front">
                            <use fill="black" fill-opacity="1" filter="url(#filter-23)" xlink:href="#path-22"></use>
                            <use fill="#67CAF8" fill-rule="evenodd" xlink:href="#path-22"></use>
                        </g>
                        <text id="Graphical" font-family="Menlo-Regular, Menlo" font-size="12" font-weight="normal" letter-spacing="0.375" fill="#9B9B9B">
                            <tspan x="6.80175781" y="82">Graphical</tspan>
                        </text>
                    </g>
                    <g id="Folder-Copy-9" transform="translate(115.000000, 228.000000)">
                        <g id="Folder-Background">
                            <use fill="black" fill-opacity="1" filter="url(#filter-25)" xlink:href="#path-24"></use>
                            <use fill="#92DCFF" fill-rule="evenodd" xlink:href="#path-24"></use>
                        </g>
                        <g id="Folder-Front">
                            <use fill="black" fill-opacity="1" filter="url(#filter-27)" xlink:href="#path-26"></use>
                            <use fill="#67CAF8" fill-rule="evenodd" xlink:href="#path-26"></use>
                        </g>
                        <text id="Trips" font-family="Menlo-Regular, Menlo" font-size="12" font-weight="normal" letter-spacing="0.375" fill="#9B9B9B">
                            <tspan x="22.0009766" y="82">Trips</tspan>
                        </text>
                    </g>
                    <g id="Folder-Copy-2" transform="translate(229.000000, 0.000000)">
                        <g id="Folder-Background">
                            <use fill="black" fill-opacity="1" filter="url(#filter-29)" xlink:href="#path-28"></use>
                            <use fill="#92DCFF" fill-rule="evenodd" xlink:href="#path-28"></use>
                        </g>
                        <g id="Folder-Front">
                            <use fill="black" fill-opacity="1" filter="url(#filter-31)" xlink:href="#path-30"></use>
                            <use fill="#67CAF8" fill-rule="evenodd" xlink:href="#path-30"></use>
                        </g>
                        <text id="Doodles" font-family="Menlo-Regular, Menlo" font-size="12" font-weight="normal" letter-spacing="0.375" fill="#9B9B9B">
                            <tspan x="14.4013672" y="82">Doodles</tspan>
                        </text>
                    </g>
                    <g id="Folder-Copy-6" transform="translate(229.000000, 114.000000)">
                        <g id="Folder-Background">
                            <use fill="black" fill-opacity="1" filter="url(#filter-33)" xlink:href="#path-32"></use>
                            <use fill="#92DCFF" fill-rule="evenodd" xlink:href="#path-32"></use>
                        </g>
                        <g id="Folder-Front">
                            <use fill="black" fill-opacity="1" filter="url(#filter-35)" xlink:href="#path-34"></use>
                            <use fill="#67CAF8" fill-rule="evenodd" xlink:href="#path-34"></use>
                        </g>
                        <text id="Humans-NYC" font-family="Menlo-Regular, Menlo" font-size="12" font-weight="normal" letter-spacing="0.375" fill="#9B9B9B">
                            <tspan x="3.00195312" y="82">Humans NYC</tspan>
                        </text>
                    </g>
                    <g id="Folder-Copy-10" transform="translate(229.000000, 228.000000)">
                        <g id="Folder-Background">
                            <use fill="black" fill-opacity="1" filter="url(#filter-37)" xlink:href="#path-36"></use>
                            <use fill="#92DCFF" fill-rule="evenodd" xlink:href="#path-36"></use>
                        </g>
                        <g id="Folder-Front">
                            <use fill="black" fill-opacity="1" filter="url(#filter-39)" xlink:href="#path-38"></use>
                            <use fill="#67CAF8" fill-rule="evenodd" xlink:href="#path-38"></use>
                        </g>
                        <text id="WWW" font-family="Menlo-Regular, Menlo" font-size="12" font-weight="normal" letter-spacing="0.375" fill="#9B9B9B">
                            <tspan x="29.6005859" y="82">WWW</tspan>
                        </text>
                    </g>
                    <g id="Folder-Copy-3" transform="translate(347.000000, 0.000000)">
                        <g id="Folder-Background">
                            <use fill="black" fill-opacity="1" filter="url(#filter-41)" xlink:href="#path-40"></use>
                            <use fill="#92DCFF" fill-rule="evenodd" xlink:href="#path-40"></use>
                        </g>
                        <g id="Folder-Front">
                            <use fill="black" fill-opacity="1" filter="url(#filter-43)" xlink:href="#path-42"></use>
                            <use fill="#67CAF8" fill-rule="evenodd" xlink:href="#path-42"></use>
                        </g>
                        <text id="Elite-WA" font-family="Menlo-Regular, Menlo" font-size="12" font-weight="normal" letter-spacing="0.375" fill="#9B9B9B">
                            <tspan x="10.6015625" y="82">Elite WA</tspan>
                        </text>
                    </g>
                    <g id="Folder-Copy-7" transform="translate(347.000000, 114.000000)">
                        <g id="Folder-Background">
                            <use fill="black" fill-opacity="1" filter="url(#filter-45)" xlink:href="#path-44"></use>
                            <use fill="#92DCFF" fill-rule="evenodd" xlink:href="#path-44"></use>
                        </g>
                        <g id="Folder-Front">
                            <use fill="black" fill-opacity="1" filter="url(#filter-47)" xlink:href="#path-46"></use>
                            <use fill="#67CAF8" fill-rule="evenodd" xlink:href="#path-46"></use>
                        </g>
                        <text id="iOS" font-family="Menlo-Regular, Menlo" font-size="12" font-weight="normal" letter-spacing="0.375" fill="#9B9B9B">
                            <tspan x="29.6005859" y="82">iOS</tspan>
                        </text>
                    </g>
                </g>
            </g>
            <g id="Text-Editor" transform="translate(604.000000, 412.000000)">
                <path d="M6,0 L707,0 C709.761424,-5.07265313e-16 712,2.23857625 712,5 L712,612 L1,612 L1,5 C1,2.23857625 3.23857625,5.07265313e-16 6,0 Z" id="Rectangle" fill="#28232E"></path>
                <g id="Code" transform="translate(10.000000, 66.000000)">
                    <text id="if-[-&quot;$SITE&quot;-];-then" font-family="Menlo-Regular, Menlo" font-size="15" font-weight="normal" letter-spacing="0.46875">
                        <tspan x="62" y="14" fill="#6EA4C3">if [ "</tspan>
                        <tspan x="118.99707" y="14" fill="#50E3C2">$SITE</tspan>
                        <tspan x="166.494629" y="14" fill="#6EA4C3">" ]; then</tspan>
                        <tspan x="62" y="32" fill="#6EA4C3"></tspan>
                        <tspan x="62" y="50" fill="#6EA4C3">  if [ "</tspan>
                        <tspan x="137.996094" y="50" fill="#50E3C2">$SITE</tspan>
                        <tspan x="185.493652" y="50" fill="#6EA4C3">" = "</tspan>
                        <tspan x="232.991211" y="50" fill="#50E3C2">-h</tspan>
                        <tspan x="251.990234" y="50" fill="#6EA4C3">" ]; then</tspan>
                        <tspan x="62" y="68" fill="#6EA4C3">    </tspan>
                        <tspan x="99.9980469" y="68" fill="#7ED321">print_help</tspan>
                        <tspan x="194.993164" y="68" fill="#6EA4C3"></tspan>
                        <tspan x="62" y="86" fill="#6EA4C3">  elif [ "</tspan>
                        <tspan x="156.995117" y="86" fill="#50E3C2">$SITE</tspan>
                        <tspan x="204.492676" y="86" fill="#6EA4C3">" = "</tspan>
                        <tspan x="251.990234" y="86" fill="#50E3C2">-st</tspan>
                        <tspan x="280.48877" y="86" fill="#6EA4C3">" ]; then</tspan>
                        <tspan x="62" y="104" fill="#6EA4C3">    </tspan>
                        <tspan x="99.9980469" y="104" fill="#7ED321">print_structure</tspan>
                        <tspan x="242.490723" y="104" fill="#6EA4C3"></tspan>
                        <tspan x="62" y="122" fill="#6EA4C3">  else</tspan>
                        <tspan x="62" y="140" fill="#6EA4C3">    </tspan>
                        <tspan x="99.9980469" y="140" fill="#7ED321">make_main</tspan>
                        <tspan x="185.493652" y="140" fill="#6EA4C3"></tspan>
                        <tspan x="62" y="158" fill="#6EA4C3">    </tspan>
                        <tspan x="99.9980469" y="158" fill="#7ED321">make_static</tspan>
                        <tspan x="204.492676" y="158" fill="#6EA4C3"></tspan>
                        <tspan x="62" y="176" fill="#6EA4C3">    </tspan>
                        <tspan x="99.9980469" y="176" fill="#7ED321">make_templates_and_snippets</tspan>
                        <tspan x="356.484863" y="176" fill="#6EA4C3"></tspan>
                        <tspan x="62" y="194" fill="#6EA4C3"></tspan>
                        <tspan x="62" y="212" fill="#6EA4C3">    # Creating apps and their respective html files</tspan>
                        <tspan x="62" y="230" fill="#6EA4C3">    if [ "</tspan>
                        <tspan x="156.995117" y="230" fill="#50E3C2">$firstapp</tspan>
                        <tspan x="242.490723" y="230" fill="#6EA4C3">" ]; then</tspan>
                        <tspan x="62" y="248" fill="#6EA4C3">        </tspan>
                        <tspan x="137.996094" y="248" fill="#B8E986">echo</tspan>
                        <tspan x="175.994141" y="248" fill="#6EA4C3"> "Creating </tspan>
                        <tspan x="280.48877" y="248" fill="#50E3C2">$firstapp</tspan>
                        <tspan x="365.984375" y="248" fill="#6EA4C3">..."</tspan>
                        <tspan x="62" y="266" fill="#6EA4C3">        </tspan>
                        <tspan x="137.996094" y="266" fill="#B8E986">cd</tspan>
                        <tspan x="156.995117" y="266" fill="#6EA4C3"> ..</tspan>
                        <tspan x="62" y="284" fill="#6EA4C3">        </tspan>
                        <tspan x="137.996094" y="284" fill="#B8E986">django-admin</tspan>
                        <tspan x="251.990234" y="284" fill="#6EA4C3"> startapp </tspan>
                        <tspan x="346.985352" y="284" fill="#50E3C2">$firstapp</tspan>
                        <tspan x="432.480957" y="284" fill="#6EA4C3"></tspan>
                        <tspan x="62" y="302" fill="#6EA4C3">        </tspan>
                        <tspan x="137.996094" y="302" fill="#B8E986">mkdir</tspan>
                        <tspan x="185.493652" y="302" fill="#6EA4C3"> -p _media/</tspan>
                        <tspan x="289.988281" y="302" fill="#50E3C2">$firstapp</tspan>
                        <tspan x="375.483887" y="302" fill="#6EA4C3">/uploads</tspan>
                        <tspan x="62" y="320" fill="#6EA4C3">        </tspan>
                        <tspan x="137.996094" y="320" fill="#B8E986">mkdir</tspan>
                        <tspan x="185.493652" y="320" fill="#6EA4C3"> -p _templates/</tspan>
                        <tspan x="327.986328" y="320" fill="#50E3C2">$firstapp</tspan>
                        <tspan x="413.481934" y="320" fill="#6EA4C3"></tspan>
                        <tspan x="62" y="338" fill="#6EA4C3">        </tspan>
                        <tspan x="137.996094" y="338" fill="#B8E986">cd</tspan>
                        <tspan x="156.995117" y="338" fill="#6EA4C3"> _templates</tspan>
                        <tspan x="62" y="356" fill="#6EA4C3">        </tspan>
                        <tspan x="137.996094" y="356" fill="#B8E986">touch</tspan>
                        <tspan x="185.493652" y="356" fill="#6EA4C3"> </tspan>
                        <tspan x="194.993164" y="356" fill="#50E3C2">$firstapp</tspan>
                        <tspan x="280.48877" y="356" fill="#6EA4C3">/</tspan>
                        <tspan x="289.988281" y="356" fill="#50E3C2">$firstapp</tspan>
                        <tspan x="375.483887" y="356" fill="#6EA4C3">.html</tspan>
                        <tspan x="62" y="374" fill="#6EA4C3">    fi</tspan>
                        <tspan x="62" y="392" fill="#6EA4C3"></tspan>
                        <tspan x="62" y="410" fill="#6EA4C3">    if [ "</tspan>
                        <tspan x="156.995117" y="410" fill="#50E3C2">$secondapp</tspan>
                        <tspan x="251.990234" y="410" fill="#6EA4C3">" ]; then</tspan>
                        <tspan x="62" y="428" fill="#6EA4C3">        </tspan>
                        <tspan x="137.996094" y="428" fill="#B8E986">echo</tspan>
                        <tspan x="175.994141" y="428" fill="#6EA4C3"> "Creating </tspan>
                        <tspan x="280.48877" y="428" fill="#50E3C2">$secondapp</tspan>
                        <tspan x="375.483887" y="428" fill="#6EA4C3">..."</tspan>
                        <tspan x="62" y="446" fill="#6EA4C3">        </tspan>
                        <tspan x="137.996094" y="446" fill="#B8E986">cd</tspan>
                        <tspan x="156.995117" y="446" fill="#6EA4C3"> ..</tspan>
                        <tspan x="62" y="464" fill="#6EA4C3">        </tspan>
                        <tspan x="137.996094" y="464" fill="#B8E986">django-admin</tspan>
                        <tspan x="251.990234" y="464" fill="#6EA4C3"> startapp </tspan>
                        <tspan x="346.985352" y="464" fill="#50E3C2">$secondapp</tspan>
                        <tspan x="441.980469" y="464" fill="#6EA4C3"></tspan>
                        <tspan x="62" y="482" fill="#6EA4C3">        </tspan>
                        <tspan x="137.996094" y="482" fill="#B8E986">mkdir</tspan>
                        <tspan x="185.493652" y="482" fill="#6EA4C3"> -p _media/</tspan>
                        <tspan x="289.988281" y="482" fill="#50E3C2">$secondapp</tspan>
                        <tspan x="384.983398" y="482" fill="#6EA4C3">/uploads</tspan>
                        <tspan x="62" y="500" fill="#6EA4C3">        </tspan>
                        <tspan x="137.996094" y="500" fill="#B8E986">mkdir</tspan>
                        <tspan x="185.493652" y="500" fill="#6EA4C3"> -p _templates/</tspan>
                        <tspan x="327.986328" y="500" fill="#50E3C2">$secondapp</tspan>
                        <tspan x="422.981445" y="500" fill="#6EA4C3"></tspan>
                        <tspan x="62" y="518" fill="#6EA4C3">        </tspan>
                        <tspan x="137.996094" y="518" fill="#B8E986">cd</tspan>
                        <tspan x="156.995117" y="518" fill="#6EA4C3"> _templates</tspan>
                        <tspan x="62" y="536" fill="#6EA4C3">        </tspan>
                        <tspan x="137.996094" y="536" fill="#B8E986">touch</tspan>
                        <tspan x="185.493652" y="536" fill="#6EA4C3"> </tspan>
                        <tspan x="194.993164" y="536" fill="#50E3C2">$secondapp</tspan>
                        <tspan x="289.988281" y="536" fill="#6EA4C3">/</tspan>
                        <tspan x="299.487793" y="536" fill="#50E3C2">$secondapp</tspan>
                        <tspan x="394.48291" y="536" fill="#6EA4C3">.html</tspan>
                        <tspan x="62" y="554" fill="#6EA4C3">    fi</tspan>
                    </text>
                    <path d="M105.5,240.5 L105.5,352.5" id="Line" stroke="#9B9B9B" opacity="0.45" stroke-linecap="square"></path>
                    <path d="M105.5,419.5 L105.5,531.5" id="Line-Copy-2" stroke="#9B9B9B" opacity="0.45" stroke-linecap="square"></path>
                    <path d="M85.5,139.5 L85.5,539.5" id="Line-Copy" stroke="#9B9B9B" opacity="0.45" stroke-linecap="square"></path>
                    <text id="Line-Numbers" font-family="Menlo-Regular, Menlo" font-size="15" font-weight="normal" letter-spacing="0.46875" fill="#9B9B9B" fill-opacity="0.451596467">
                        <tspan x="31.5004883" y="14">1</tspan>
                        <tspan x="41" y="32"></tspan>
                        <tspan x="31.5004883" y="50">2</tspan>
                        <tspan x="31.5004883" y="68">3</tspan>
                        <tspan x="31.5004883" y="86">4</tspan>
                        <tspan x="31.5004883" y="104">5</tspan>
                        <tspan x="31.5004883" y="122">6</tspan>
                        <tspan x="31.5004883" y="140">7</tspan>
                        <tspan x="31.5004883" y="158">8</tspan>
                        <tspan x="31.5004883" y="176">9</tspan>
                        <tspan x="41" y="194"></tspan>
                        <tspan x="22.0009766" y="212">10</tspan>
                        <tspan x="22.0009766" y="230">11</tspan>
                        <tspan x="22.0009766" y="248">12</tspan>
                        <tspan x="22.0009766" y="266">13</tspan>
                        <tspan x="22.0009766" y="284">14</tspan>
                        <tspan x="22.0009766" y="302">15</tspan>
                        <tspan x="22.0009766" y="320">16</tspan>
                        <tspan x="22.0009766" y="338">17</tspan>
                        <tspan x="22.0009766" y="356">18</tspan>
                        <tspan x="22.0009766" y="374">19</tspan>
                        <tspan x="41" y="392"></tspan>
                        <tspan x="22.0009766" y="410">20</tspan>
                        <tspan x="22.0009766" y="428">21</tspan>
                        <tspan x="22.0009766" y="446">22</tspan>
                        <tspan x="22.0009766" y="464">23</tspan>
                        <tspan x="22.0009766" y="482">24</tspan>
                        <tspan x="22.0009766" y="500">25</tspan>
                        <tspan x="22.0009766" y="518">26</tspan>
                        <tspan x="22.0009766" y="536">27</tspan>
                        <tspan x="22.0009766" y="554">28</tspan>
                        <tspan x="22.0009766" y="572">29</tspan>
                    </text>
                </g>
                <g id="Filename" transform="translate(0.000000, 7.000000)" fill="#9B9B9B">
                    <path d="M1,32 L254.343501,32 C255.73979,32 257.035023,31.2718999 257.760755,30.0790315 L274.891906,1.92096847 C275.617638,0.728100068 276.912872,-6.31684355e-16 278.30916,-8.8817842e-16 L443.179441,-2.66453526e-15 C444.549814,-2.91626868e-15 445.824805,0.701519642 446.558268,1.85908303 L464.478408,30.140917 C465.211872,31.2984804 466.486862,32 467.857235,32 L712,32" id="Line-2" stroke-opacity="0.2" stroke="#9B9B9B" fill-opacity="0.08" stroke-linecap="square"></path>
                    <text id="automate.sh" font-family="Menlo-Regular, Menlo" font-size="15" font-weight="normal" letter-spacing="0.46875">
                        <tspan x="305.252686" y="20">automate.sh</tspan>
                    </text>
                </g>
            </g>
            <rect id="Rectangle-2" fill-opacity="0.7" fill="#000000" x="0" y="0" width="1440" height="1024"></rect>
        </g>
    </g>
</svg>